<svg width="40" height="40" viewBox="0 0 40 40" fill="none" xmlns="http://www.w3.org/2000/svg">
<path d="M0 10C0 4.47715 4.47715 0 10 0H30C35.5228 0 40 4.47715 40 10V30C40 35.5228 35.5228 40 30 40H10C4.47715 40 0 35.5228 0 30V10Z" fill="#171717"/>
<path d="M18 11H12C11.4477 11 11 11.4477 11 12V21C11 21.5523 11.4477 22 12 22H18C18.5523 22 19 21.5523 19 21V12C19 11.4477 18.5523 11 18 11Z" stroke="white" stroke-width="2"/>
<path d="M28 18H22C21.4477 18 21 18.4477 21 19V28C21 28.5523 21.4477 29 22 29H28C28.5523 29 29 28.5523 29 28V19C29 18.4477 28.5523 18 28 18Z" stroke="white" stroke-width="2"/>
<path d="M15 15H15.01" stroke="white" stroke-width="2" stroke-linecap="round"/>
<path d="M25 22H25.01" stroke="white" stroke-width="2" stroke-linecap="round"/>
</svg>
